<svg width="29" height="29" viewBox="0 0 29 29" fill="none" xmlns="http://www.w3.org/2000/svg">
<path d="M26 12.7559C26 9.99887 25.9973 8.05166 25.7988 6.57715C25.605 5.1371 25.2443 4.32776 24.6582 3.74121C24.0727 3.15526 23.2644 2.79526 21.8242 2.60156C20.3494 2.40322 18.4019 2.40039 15.6445 2.40039H12.7559C9.99887 2.40039 8.05166 2.4031 6.57715 2.60156C5.1371 2.79543 4.32776 3.15614 3.74121 3.74219C3.15526 4.32771 2.79526 5.136 2.60156 6.57617C2.40322 8.05094 2.40039 9.99847 2.40039 12.7559V15.6445C2.40039 18.4015 2.4031 20.3487 2.60156 21.8232C2.79543 23.2633 3.15614 24.0726 3.74219 24.6592C4.32771 25.2451 5.136 25.6051 6.57617 25.7988C8.05094 25.9972 9.99847 26 12.7559 26H15.6445C18.4015 26 20.3487 25.9973 21.8232 25.7988C23.2633 25.605 24.0726 25.2443 24.6592 24.6582C25.2451 24.0727 25.6051 23.2644 25.7988 21.8242C25.9972 20.3494 26 18.4019 26 15.6445V12.7559ZM28.4004 15.6445C28.4004 18.3341 28.4026 20.4726 28.1777 22.1445C27.9482 23.8508 27.4623 25.2506 26.3555 26.3564C25.2491 27.4618 23.8498 27.948 22.1436 28.1777C20.4718 28.4028 18.3341 28.4004 15.6445 28.4004H12.7559C10.0663 28.4004 7.9278 28.4026 6.25586 28.1777C4.54954 27.9482 3.1498 27.4623 2.04395 26.3555C0.938638 25.2491 0.452363 23.8498 0.222657 22.1436C-0.00236192 20.4718 9.99806e-07 18.3341 9.99806e-07 15.6445V12.7559C9.99806e-07 10.0663 -0.00221261 7.9278 0.222657 6.25586C0.452183 4.54954 0.938123 3.1498 2.04492 2.04395C3.15124 0.938639 4.55059 0.452363 6.25684 0.222657C7.92859 -0.00236176 10.0663 9.99603e-07 12.7559 9.99603e-07H15.6445C18.3341 9.99603e-07 20.4726 -0.00221263 22.1445 0.222657C23.8508 0.452183 25.2506 0.938123 26.3564 2.04492C27.4618 3.15124 27.948 4.55059 28.1777 6.25684C28.4028 7.92859 28.4004 10.0663 28.4004 12.7559V15.6445Z" fill="#FBFBFB"/>
<path d="M20.2002 9.2002C21.3048 9.2002 22.2002 8.30476 22.2002 7.2002C22.2002 6.09563 21.3048 5.2002 20.2002 5.2002C19.0956 5.2002 18.2002 6.09563 18.2002 7.2002C18.2002 8.30476 19.0956 9.2002 20.2002 9.2002Z" fill="white"/>
<path d="M17 14.2002C17 12.6538 15.7466 11.4004 14.2002 11.4004C12.6538 11.4004 11.4004 12.6538 11.4004 14.2002C11.4004 15.7466 12.6538 17 14.2002 17C15.7466 17 17 15.7466 17 14.2002ZM19.4004 14.2002C19.4004 17.0721 17.0721 19.4004 14.2002 19.4004C11.3283 19.4004 9 17.0721 9 14.2002C9 11.3283 11.3283 9 14.2002 9C17.0721 9 19.4004 11.3283 19.4004 14.2002Z" fill="#FBFBFB"/>
</svg>
