<svg width="30" height="23" viewBox="0 0 30 23" fill="none" xmlns="http://www.w3.org/2000/svg">
<path d="M1.33379 10.6667H9.33379C9.68741 10.6667 10.0265 10.5262 10.2766 10.2761C10.5266 10.0261 10.6671 9.68695 10.6671 9.33333V1.33333C10.6671 0.979711 10.5266 0.640573 10.2766 0.390524C10.0265 0.140476 9.68741 0 9.33379 0H1.33379C0.980166 0 0.641027 0.140476 0.390979 0.390524C0.14093 0.640573 0.000454317 0.979711 0.000454317 1.33333V9.33333C0.000454317 9.68695 0.14093 10.0261 0.390979 10.2761C0.641027 10.5262 0.980166 10.6667 1.33379 10.6667ZM2.66712 2.66667H8.00046V8H2.66712V2.66667ZM28.0005 4H14.6671C14.3135 4 13.9744 4.14048 13.7243 4.39052C13.4743 4.64057 13.3338 4.97971 13.3338 5.33333C13.3338 5.68695 13.4743 6.02609 13.7243 6.27614C13.9744 6.52619 14.3135 6.66667 14.6671 6.66667H28.0005C28.3541 6.66667 28.6932 6.52619 28.9433 6.27614C29.1933 6.02609 29.3338 5.68695 29.3338 5.33333C29.3338 4.97971 29.1933 4.64057 28.9433 4.39052C28.6932 4.14048 28.3541 4 28.0005 4ZM28.0005 17.3333H14.6671C14.3135 17.3333 13.9744 17.4738 13.7243 17.7239C13.4743 17.9739 13.3338 18.313 13.3338 18.6667C13.3338 19.0203 13.4743 19.3594 13.7243 19.6095C13.9744 19.8595 14.3135 20 14.6671 20H28.0005C28.3541 20 28.6932 19.8595 28.9433 19.6095C29.1933 19.3594 29.3338 19.0203 29.3338 18.6667C29.3338 18.313 29.1933 17.9739 28.9433 17.7239C28.6932 17.4738 28.3541 17.3333 28.0005 17.3333ZM3.92312 22.6667H3.93912C4.28872 22.6655 4.62389 22.5272 4.87245 22.2813L10.2671 16.948C10.4055 16.8289 10.518 16.6826 10.5976 16.5182C10.6771 16.3538 10.722 16.1749 10.7296 15.9924C10.7371 15.81 10.7071 15.6279 10.6414 15.4575C10.5756 15.2872 10.4756 15.1321 10.3475 15.002C10.2194 14.8718 10.0659 14.7694 9.89658 14.701C9.72725 14.6327 9.54568 14.5998 9.36312 14.6045C9.18057 14.6092 9.00093 14.6513 8.83533 14.7283C8.66974 14.8053 8.52172 14.9155 8.40046 15.052L3.96179 19.4373L2.29245 17.704C2.17068 17.5781 2.02529 17.4774 1.86461 17.4077C1.70392 17.338 1.53108 17.3006 1.35594 17.2977C1.00225 17.2919 0.660709 17.4267 0.406454 17.6727C0.1522 17.9186 0.00606041 18.2555 0.000184269 18.6092C-0.00569187 18.9629 0.129177 19.3044 0.375121 19.5587L2.98045 22.2667C3.10347 22.3922 3.25008 22.4921 3.41186 22.5608C3.57363 22.6294 3.74739 22.6654 3.92312 22.6667Z" fill="#F4F3F8"/>
</svg>
